<?xml version="1.0" encoding="utf-8"?>
<!-- Generator: Adobe Illustrator 26.0.1, SVG Export Plug-In . SVG Version: 6.00 Build 0)  -->
<svg version="1.1" id="Layer_1" xmlns="http://www.w3.org/2000/svg" xmlns:xlink="http://www.w3.org/1999/xlink" x="0px" y="0px"
	 viewBox="0 0 1950.1 764.2" style="enable-background:new 0 0 1950.1 764.2;" xml:space="preserve">
<style type="text/css">
	.st0{fill:url(#SVGID_1_);}
</style>
<g id="Layer_2_00000053511000449535981710000012711119576679029657_">
	<g id="Layer_1-2">
		
			<linearGradient id="SVGID_1_" gradientUnits="userSpaceOnUse" x1="-0.3089" y1="383.8594" x2="1950.0901" y2="383.8594" gradientTransform="matrix(1 0 0 -1 0 766)">
			<stop  offset="0" style="stop-color:#00FFFF"/>
			<stop  offset="0.27" style="stop-color:#FBB03B"/>
			<stop  offset="0.5" style="stop-color:#FCEE21"/>
			<stop  offset="0.71" style="stop-color:#FF0000"/>
			<stop  offset="0.89" style="stop-color:#FF00FF"/>
			<stop  offset="1" style="stop-color:#4276FF"/>
		</linearGradient>
		<path class="st0" d="M343.5,764.2c-7,0-14.1-0.4-21.1-1.3c-51.5-6.3-98.3-34.5-125.5-75.3c-63.2-95.1-25.6-237.5,7.5-363.1
			c11.8-44.6,22.9-86.8,27.6-120.4c5.1-36.8,0.1-47.8-0.9-49.6c-2.9-1.3-10.4-2.1-15.6-0.5c-4.9,1.6-17,21.9-29.8,43.5
			c-11.3,19-25.3,42.6-45.1,72.9c-10.7,16.4-19.4,29.2-33.4,43.8C65.9,357.4,30.6,376.7,0,376.7v-89.6c-1.1,0,1,0.1,0,0.3
			c0.5-0.1,12.7-4,42.5-35.2c8-8.3,13-15.3,23.1-30.8c18.7-28.7,32.2-51.4,43.1-69.7c12.7-21.3,21.8-36.7,31.9-49.3
			c13.9-17.2,29-27.9,47.8-33.9c31.3-9.9,67.8-5.4,93.1,11.7c13.5,9.1,31.1,26.6,38.6,58.6c4.2,18,5,39.2,2.3,64.8
			c-4.4,41.8-17.4,91.3-31.2,143.6c-15.1,57.4-30.8,116.8-36.5,170.8c-5.8,54.8-0.2,94,17,119.9c12.7,19.1,36.4,32.9,61.8,36
			c18.8,2.3,35.3-1.6,45.3-10.7c12-10.9,19-33.9,21-68.5c2.2-39.1-2.2-86.6-6.9-136.9c-5.3-56.9-10.8-115.7-7.2-169.8
			c4.6-68.1,23.4-118.2,57.7-153.2c23.1-23.3,52.2-39.6,84.1-47.1c34.9-8.1,70.1-4,99.1,11.3c36.1,19.1,61.5,54.9,77.7,109.5
			c12.4,41.7,18.6,89.7,25.1,140.5c6.6,51.4,13.5,104.5,27.1,149.5c13.7,45.3,32.4,76,57.3,94c110.8,80,293.8,24.7,314.3,18.2
			c93.3-29.9,172.4-87.8,234.5-147.8c-16.6-21.5-28.2-44.9-33.9-68.8c-8.2-34.7-4.8-72.8,10.1-113.4c11.9-32.4,31.2-66.4,57.3-100.9
			c50.3-66.7,114.3-120.2,157.4-148c18.5-12,35.2-20.7,49.6-25.8c26.8-9.6,49-7.9,66.2,5.3c30.1,23.1,22.7,65.9,20.2,79.9
			c-6.2,35.6-23.8,84.4-49.4,137.4c-28.8,59.3-65.7,120-106.9,175.3c-12.4,16.6-26.1,34-41.1,51.9c39.4,20.7,83.7,28.2,118.3,19.5
			c82.3-20.7,128.4-135.2,140.5-169.8l0.3-0.8c10.3-29.4,15.9-55.9,21.2-81.5c10.2-48.9,19.8-95,60.4-130.4
			c29.6-25.8,68-37.5,117.3-35.5v89.5c-37.7-1.5-54.1,9.8-58.4,13.5c-17.1,14.9-22.6,38.1-31.6,81.2c-5.7,27.2-12.1,57.9-24.4,92.9
			l-0.2,0.7c-20.4,58-81,196.3-203.2,227c-61.3,15.4-135.4,1.8-198.2-36.3c-1.5-0.9-2.9-1.8-4.4-2.7
			c-71.8,70.5-163.7,137.6-274.2,173c-17,5.4-78.2,23.5-152.9,27.8c-42.8,2.5-83.1,0-119.7-7.4c-46.3-9.3-87.2-26.6-121.4-51.3
			c-89.9-64.8-106.3-192.2-120.8-304.7c-9.9-76.8-21.1-163.9-55.9-182.3c-21.2-11.2-55.9-2.5-77.4,19.4
			C462.7,243.2,473,352.9,482,449.7c5,53.7,9.8,104.4,7.1,150.3c-3.4,59.6-19.8,102-50.1,129.6C414.4,752.1,380.4,764.2,343.5,764.2
			z M1590.6,115c-10,7-21.4,15.7-34,26.2c-42.7,35.8-80.4,77.4-106.2,117.2c-29.6,45.7-41.6,85.6-34.5,115.2
			c2,7.9,5.1,15.4,9.2,22.4c22.5-26.7,41.1-51.8,55.7-72.8c37.8-54.4,71.3-114.2,94.3-168.2C1581.7,139.7,1586.7,126.4,1590.6,115z"
			/>
	</g>
</g>
</svg>
