<svg xmlns="http://www.w3.org/2000/svg" viewBox="0 0 916.13 119.14"><defs><style>.cls-1{fill:#009bfa;}</style></defs><g id="Layer_2" data-name="Layer 2"><g id="Layer_1-2" data-name="Layer 1"><path class="cls-1" d="M138,68.74a5.49,5.49,0,0,0-3.22,8.69L132.48,91a2,2,0,0,0,.44,1.62,2,2,0,0,0,1.53.71h9.38a2,2,0,0,0,2-2.28l-1.95-14.14A5.47,5.47,0,0,0,142,69.43V62.09l12.36,5.36V98.14a6.87,6.87,0,0,0,6.86,6.86h56.41a6.87,6.87,0,0,0,6.86-6.86V65.57L253.92,52.8a2,2,0,0,0-.15-3.73l-67-22.86a2,2,0,0,0-1.35,0C162.52,34.91,124.87,48.76,121.37,49a2,2,0,0,0-.78,3.83L138,60.35Zm-1.17,20.59,2.06-12.21a2,2,0,0,0-.69-1.87,1.49,1.49,0,1,1,2.07-.16,2,2,0,0,0-.47,1.58l1.75,12.66Zm83.66,8.81a2.87,2.87,0,0,1-2.86,2.86H161.21a2.87,2.87,0,0,1-2.86-2.86v-29l28.11,12.2a2.06,2.06,0,0,0,1.59,0l32.43-14.07Zm-93-46.72c14.47-4.52,49.24-17.6,58.73-21.19l61.39,21L187.25,77.36,147.41,60.08l33.64-4.44a12.16,12.16,0,0,0,6.2,1.46c4.64,0,8.14-1.85,8.14-4.3s-3.5-4.29-8.14-4.29c-4,0-7.14,1.38-7.93,3.32l-39,5.15Zm53.66,1.38c0-.93,2.39-2.29,6.13-2.29s6.14,1.36,6.14,2.29-2.39,2.3-6.14,2.3S181.12,53.74,181.12,52.8Z"/><path class="cls-1" d="M786.65,37.65H764.88V24.3c0-1.77-1.71-3.15-3.9-3.15a5.27,5.27,0,0,0-.68,0,4.44,4.44,0,0,0-.63,0H729.81c-2.18,0-3.9,1.38-3.9,3.15V37.65H704.15a6.52,6.52,0,0,0-6.51,6.51V73.49A6.5,6.5,0,0,0,703.75,80v23.46c0,3.59,2.61,6.51,5.83,6.51h71.63c3.22,0,5.84-2.92,5.84-6.51V80a6.51,6.51,0,0,0,6.11-6.49V44.16A6.52,6.52,0,0,0,786.65,37.65ZM729.16,24.53a1.65,1.65,0,0,1,.8-.13,1.31,1.31,0,0,0,.28,0h29.43l.26,0a1.61,1.61,0,0,0,.69,0,1.71,1.71,0,0,1,1,.1v16a1.38,1.38,0,0,1-.66.14,1.36,1.36,0,0,1-.65-.14V28.27a1.62,1.62,0,0,0-1.62-1.62H732.09a1.62,1.62,0,0,0-1.62,1.62V40.56a1.38,1.38,0,0,1-.66.14,1.36,1.36,0,0,1-.65-.14Zm27.92,5.36v7.76H733.71V29.89Zm26.73,73.55c0,1.8-1.17,3.27-2.6,3.27H709.58c-1.43,0-2.59-1.47-2.59-3.27V80h25.48v3A6.52,6.52,0,0,0,739,89.48h11.61A6.53,6.53,0,0,0,757.11,83V80h26.7ZM735.71,83V73.8A3.28,3.28,0,0,1,739,70.53h11.61a3.28,3.28,0,0,1,3.27,3.27V83a3.27,3.27,0,0,1-3.27,3.26H739A3.27,3.27,0,0,1,735.71,83Zm54.21-9.48a3.28,3.28,0,0,1-3.27,3.27H757.11v-3a6.53,6.53,0,0,0-6.52-6.51H739a6.52,6.52,0,0,0-6.51,6.51v3H704.15a3.27,3.27,0,0,1-3.27-3.27V44.16a3.27,3.27,0,0,1,3.27-3.27h21.78c.06,1.72,1.74,3.06,3.88,3.06s3.83-1.34,3.89-3.06h23.4c.06,1.72,1.74,3.06,3.88,3.06s3.83-1.34,3.89-3.06h21.78a3.28,3.28,0,0,1,3.27,3.27Z"/><path class="cls-1" d="M744.79,84.08a5.7,5.7,0,1,0-5.7-5.7A5.7,5.7,0,0,0,744.79,84.08Zm0-9.78a4.08,4.08,0,1,1-4.08,4.08A4.08,4.08,0,0,1,744.79,74.3Z"/><path class="cls-1" d="M422.22,67.65H395.61V57.19a8.72,8.72,0,0,0-1.13-4.33,1.74,1.74,0,0,0,1-.83,1.76,1.76,0,0,0-.08-1.8L375.34,19.94V15.1l12.4-5.1a1.75,1.75,0,0,0,0-3.24L374.07,1.13a1.76,1.76,0,0,0-2.42,1.62V14a1.76,1.76,0,0,0,.19.78v5.3l-20,30.14a1.79,1.79,0,0,0-.08,1.8,1.74,1.74,0,0,0,1,.83,8.72,8.72,0,0,0-1.13,4.33V67.65h-29.6a6.66,6.66,0,0,0-6.65,6.64v31.37a6.66,6.66,0,0,0,6.65,6.64H422.22a6.66,6.66,0,0,0,6.65-6.64V74.29A6.66,6.66,0,0,0,422.22,67.65ZM375.16,5.37l7.31,3-7.31,3Zm-1.52,18.35,17,25.73H356.61Zm4.09,84.82h-9.79V89.09h9.79Zm47.63-2.88a3.15,3.15,0,0,1-3.14,3.14h-41V87.34a1.75,1.75,0,0,0-1.75-1.76H366.19a1.75,1.75,0,0,0-1.75,1.76V108.8H322.07a3.15,3.15,0,0,1-3.14-3.14V74.29a3.15,3.15,0,0,1,3.14-3.14h31.37a1.73,1.73,0,0,0,1.28-.56,1.68,1.68,0,0,0,.47-1.31c0-.15,0-.29,0-.43V57.19c0-2.3,1.44-4.24,3.15-4.24H389c1.7,0,3.14,1.94,3.14,4.24V68.85c0,.14,0,.28,0,.42a1.76,1.76,0,0,0,1.75,1.88h28.38a3.15,3.15,0,0,1,3.14,3.14Z"/><path class="cls-1" d="M370.57,60.29h-8.76a.88.88,0,0,0-.87.88v8.76a.87.87,0,0,0,.87.87h8.76a.87.87,0,0,0,.88-.87V61.17A.88.88,0,0,0,370.57,60.29Zm-.87,8.76h-7v-7h7Z"/><path class="cls-1" d="M384.61,60.29h-8.75a.88.88,0,0,0-.88.88v8.76a.87.87,0,0,0,.88.87h8.75a.87.87,0,0,0,.88-.87V61.17A.88.88,0,0,0,384.61,60.29Zm-.87,8.76h-7v-7h7Z"/><path class="cls-1" d="M337.71,85H329a.88.88,0,0,0-.87.88v8.76a.87.87,0,0,0,.87.87h8.76a.87.87,0,0,0,.88-.87V85.92A.88.88,0,0,0,337.71,85Zm-.87,8.76h-7v-7h7Z"/><path class="cls-1" d="M351.76,85H343a.89.89,0,0,0-.88.88v8.76a.88.88,0,0,0,.88.87h8.76a.87.87,0,0,0,.87-.87V85.92A.88.88,0,0,0,351.76,85Zm-.88,8.76h-7v-7h7Z"/><path class="cls-1" d="M402.86,85H394.1a.89.89,0,0,0-.88.88v8.76a.88.88,0,0,0,.88.87h8.76a.88.88,0,0,0,.88-.87V85.92A.89.89,0,0,0,402.86,85ZM402,93.8h-7v-7h7Z"/><path class="cls-1" d="M416.9,85h-8.76a.88.88,0,0,0-.87.88v8.76a.87.87,0,0,0,.87.87h8.76a.87.87,0,0,0,.88-.87V85.92A.88.88,0,0,0,416.9,85ZM416,93.8h-7v-7h7Z"/><path class="cls-1" d="M532,55.5a41.76,41.76,0,0,0,1.26,10.72c1.88,7.6,6.43,18,8,21.53a5.76,5.76,0,0,0,.44,7.23,5.83,5.83,0,0,0-1.51,3.81,5.93,5.93,0,0,0,1.87,4.34,5.81,5.81,0,0,0-1.35,3.66,6.42,6.42,0,0,0,6.55,6.2l23.69.31h.1a6.88,6.88,0,0,0,4.79-1.9,5.8,5.8,0,0,0-.07-8.47,5.77,5.77,0,0,0-.15-7.61,5.75,5.75,0,0,0,0-7.75c1.66-3.69,6.1-13.88,7.94-21.36A42.09,42.09,0,0,0,584.9,55.5a26.43,26.43,0,1,0-52.86,0Zm41.07,53a2.73,2.73,0,0,1-2,.76L547.38,109a2.44,2.44,0,0,1-2.61-2.16,2.21,2.21,0,0,1,1.79-2,2,2,0,0,0-.18-3.9,2.36,2.36,0,0,1-2.13-2.11,2.2,2.2,0,0,1,1.68-2,2,2,0,0,0,1.41-1.9A2,2,0,0,0,546,93.08a2.25,2.25,0,0,1-1.7-2,1.81,1.81,0,0,1,.3-.95H572.6a2,2,0,0,1,.59,1.34,2.19,2.19,0,0,1-1.68,1.94,2,2,0,0,0,0,3.81,2.23,2.23,0,0,1,1.7,2,2.2,2.2,0,0,1-1.79,2,2,2,0,0,0,.18,3.91,2.34,2.34,0,0,1,2.12,2.11A1.88,1.88,0,0,1,573.11,108.54ZM558.47,33.07A22.46,22.46,0,0,1,580.9,55.5a38.15,38.15,0,0,1-1.15,9.76C578,72.46,573.5,82.71,572,86.12H545c-1.54-3.41-6-13.65-7.79-20.85A38.27,38.27,0,0,1,536,55.5,22.45,22.45,0,0,1,558.47,33.07Z"/><path class="cls-1" d="M530.79,9.42a2.36,2.36,0,0,0-1.56-.88,2.32,2.32,0,0,0-1.72.49,2.34,2.34,0,0,0-.39,3.27l11.93,15.15a2.34,2.34,0,0,0,1.83.89H541a2.3,2.3,0,0,0,1.36-.49,2.36,2.36,0,0,0,.88-1.56,2.32,2.32,0,0,0-.49-1.72Zm10.3,16.84a.39.39,0,0,1-.2.08.34.34,0,0,1-.27-.13L528.69,11.06a.36.36,0,0,1-.07-.24.33.33,0,0,1,.13-.22.29.29,0,0,1,.2-.07h0a.34.34,0,0,1,.23.12L541.14,25.8a.31.31,0,0,1,.07.24A.35.35,0,0,1,541.09,26.26Z"/><path class="cls-1" d="M574,27.77h0a2.25,2.25,0,0,0,1.28.39h.08a2.37,2.37,0,0,0,1.87-1l9.83-14.8a2.32,2.32,0,0,0-.65-3.23,2.25,2.25,0,0,0-1.75-.34,2.28,2.28,0,0,0-1.48,1l-9.83,14.8a2.32,2.32,0,0,0,.64,3.23Zm1-2.13,9.84-14.79a.31.31,0,0,1,.21-.14.29.29,0,0,1,.24,0,.3.3,0,0,1,.15.21.36.36,0,0,1-.05.25L575.56,26a.31.31,0,0,1-.26.15.46.46,0,0,1-.2-.05.35.35,0,0,1-.14-.22A.32.32,0,0,1,575,25.64Z"/><path class="cls-1" d="M558,24.31h.17a2.34,2.34,0,0,0,2.25-2.23l.83-19.65a2.33,2.33,0,0,0-4.66-.2l-.83,19.66a2.34,2.34,0,0,0,.61,1.67,2.31,2.31,0,0,0,1.62.75ZM557.75,22l.83-19.65a.32.32,0,0,1,.35-.32.32.32,0,0,1,.23.11.32.32,0,0,1,.08.24L558.42,22a.35.35,0,0,1-.34.32h0a.31.31,0,0,1-.23-.11A.34.34,0,0,1,557.75,22Z"/><path class="cls-1" d="M544.3,51.76h0a2.21,2.21,0,0,0,2.33-2A9.33,9.33,0,0,1,546.9,48a7.75,7.75,0,0,1,6.16-5.6,10,10,0,0,1,2-.29,2.2,2.2,0,0,0-.1-4.39c-4.11.09-12,2.64-12.65,11.67A2.2,2.2,0,0,0,544.3,51.76Z"/><path class="cls-1" d="M1.5,68.31a1.5,1.5,0,0,1-.09-3l6-.36a1.5,1.5,0,0,1,.19,3q-3.17.21-6,.36Z"/><path class="cls-1" d="M490.76,119.14a1.5,1.5,0,0,1-.1-3c2.15-.14,4.3-.35,6.41-.65,1.78-.24,3.6-.56,5.41-.93a1.5,1.5,0,1,1,.6,2.94c-1.87.38-3.76.71-5.6,1-2.18.3-4.41.52-6.63.66Zm-12.13,0h-.1a114.21,114.21,0,0,1-12.2-1.49,1.5,1.5,0,0,1,.52-3,110.79,110.79,0,0,0,11.88,1.45,1.5,1.5,0,0,1-.1,3ZM454.75,115a1.31,1.31,0,0,1-.39,0c-3.77-1-7.6-2.17-11.71-3.56a1.5,1.5,0,0,1,1-2.84c4.05,1.37,7.82,2.51,11.52,3.5a1.5,1.5,0,0,1-.38,2.95Zm59.73-.64a1.5,1.5,0,0,1-.48-2.92c3.62-1.21,7.27-2.64,11.17-4.36a1.5,1.5,0,1,1,1.21,2.74c-4,1.76-7.72,3.22-11.42,4.46A1.34,1.34,0,0,1,514.48,114.35ZM897.66,72.19a1.54,1.54,0,0,1-.52-.09c-3.77-1.38-7.61-2.73-11.42-4a1.5,1.5,0,0,1,1-2.84c3.83,1.29,7.7,2.64,11.49,4a1.5,1.5,0,0,1-.51,2.91ZM601.11,70.78a1.5,1.5,0,0,1-.58-2.89c3.72-1.56,7.54-3.07,11.33-4.49a1.5,1.5,0,1,1,1,2.8c-3.75,1.41-7.53,2.91-11.23,4.46A1.46,1.46,0,0,1,601.11,70.78ZM19.59,67.12a1.5,1.5,0,0,1-.11-3c4-.29,8-.61,12.09-1a1.5,1.5,0,1,1,.25,3c-4.05.35-8.13.67-12.12,1Zm24.19-2.05a1.5,1.5,0,0,1-.14-3q5.82-.57,12.06-1.22a1.5,1.5,0,1,1,.31,3q-6.24.66-12.09,1.22Zm830.87-.63a1.67,1.67,0,0,1-.44-.06C870.38,63.19,866.47,62,862.6,61a1.5,1.5,0,1,1,.82-2.88c3.89,1.09,7.82,2.25,11.67,3.44a1.5,1.5,0,0,1-.44,2.93ZM318.8,63a1.41,1.41,0,0,1-.45-.07c-3.86-1.2-7.77-2.36-11.6-3.46a1.5,1.5,0,1,1,.83-2.88c3.85,1.1,7.78,2.27,11.66,3.47a1.51,1.51,0,0,1,1,1.88A1.49,1.49,0,0,1,318.8,63Zm-250.88-.5a1.5,1.5,0,0,1-.16-3c2.39-.26,4.81-.5,7.23-.75l4.85-.49a1.5,1.5,0,1,1,.31,3l-4.86.49c-2.42.24-4.82.48-7.21.74Zm555.9-.28a1.5,1.5,0,0,1-.47-2.92c3.83-1.28,7.75-2.51,11.63-3.65a1.5,1.5,0,1,1,.84,2.87c-3.84,1.14-7.72,2.36-11.52,3.63A1.59,1.59,0,0,1,623.82,62.24ZM92.05,59.9a1.5,1.5,0,0,1-.19-3c4.42-.58,8.31-1.2,11.89-1.9a1.5,1.5,0,1,1,.57,2.94c-3.63.71-7.58,1.35-12.07,1.94Zm759.23-2a1.61,1.61,0,0,1-.37,0c-3.89-1-7.85-1.94-11.76-2.83a1.5,1.5,0,0,1,.66-2.93c3.94.9,7.92,1.85,11.84,2.85a1.5,1.5,0,0,1-.37,2.95ZM295.46,56.35a1.24,1.24,0,0,1-.38-.05c-3.91-1-7.86-2-11.75-2.9a1.5,1.5,0,0,1-1.11-1.8,1.48,1.48,0,0,1,1.8-1.12c3.9.91,7.88,1.89,11.82,2.92a1.5,1.5,0,0,1-.38,3Zm351.64-1a1.5,1.5,0,0,1-.37-3c3.9-1,7.89-2,11.85-2.83a1.5,1.5,0,0,1,.65,2.93c-3.93.87-7.89,1.81-11.76,2.8A1.18,1.18,0,0,1,647.1,55.38Zm180.51-2.87-.29,0c-3.94-.79-7.94-1.53-11.89-2.21a1.5,1.5,0,1,1,.51-3c4,.69,8,1.44,12,2.23a1.5,1.5,0,0,1-.3,3ZM271.82,50.84l-.3,0c-4-.82-8-1.58-11.88-2.27a1.5,1.5,0,1,1,.52-2.95c3.95.69,8,1.46,12,2.28a1.5,1.5,0,0,1-.3,3Zm399-.68a1.52,1.52,0,0,1-1.48-1.23,1.5,1.5,0,0,1,1.21-1.74c4-.74,8-1.42,12-2a1.5,1.5,0,1,1,.45,3c-4,.6-8,1.28-11.92,2Z"/><path class="cls-1" d="M914.63,78.76a1.46,1.46,0,0,1-.57-.12q-2.76-1.12-5.55-2.22a1.5,1.5,0,0,1,1.1-2.8q2.8,1.11,5.59,2.25a1.5,1.5,0,0,1-.57,2.89Z"/></g></g></svg>