<?xml version="1.0" standalone="no"?>
<!DOCTYPE svg PUBLIC "-//W3C//DTD SVG 20010904//EN"
 "http://www.w3.org/TR/2001/REC-SVG-20010904/DTD/svg10.dtd">
<svg version="1.0" xmlns="http://www.w3.org/2000/svg"
 width="1168.000000pt" height="1168.000000pt" viewBox="0 0 1168.000000 1168.000000"
 preserveAspectRatio="xMidYMid meet">
<metadata>
Created by potrace 1.14, written by Peter Selinger 2001-2017
</metadata>
<g transform="translate(0.000000,1168.000000) scale(0.100000,-0.100000)"
fill="#000000" stroke="none">
<path d="M1502 9429 c-172 -20 -292 -70 -375 -158 -99 -103 -138 -215 -156
-442 -6 -73 -11 -139 -11 -146 0 -9 -37 -13 -152 -15 l-153 -3 -3 -212 -2
-213 155 0 155 0 2 -802 3 -803 328 -3 327 -2 0 805 0 805 193 2 192 3 3 80
c2 44 0 140 -3 213 l-7 132 -189 0 -189 0 0 95 c0 125 14 159 77 188 43 20 64
22 191 21 l142 0 0 226 0 227 -92 7 c-119 8 -344 6 -436 -5z"/>
<path d="M2859 8670 c-240 -27 -464 -130 -634 -291 -102 -97 -159 -174 -216
-294 -80 -168 -94 -236 -93 -470 0 -183 2 -208 26 -297 51 -187 137 -337 264
-459 80 -76 133 -113 229 -161 158 -80 336 -118 549 -118 324 0 569 83 756
258 113 105 188 226 235 380 l6 22 -304 0 -305 0 -26 -44 c-74 -126 -244 -194
-422 -167 -210 31 -328 161 -358 394 l-5 37 724 0 724 0 7 22 c9 28 -3 200
-23 318 -75 460 -368 779 -784 854 -111 20 -256 26 -350 16z m214 -455 c137
-36 241 -152 273 -305 8 -40 13 -74 11 -76 -2 -3 -182 -3 -399 -2 l-395 3 13
55 c62 247 271 384 497 325z"/>
<path d="M5295 8669 c-176 -26 -339 -129 -452 -284 l-22 -30 -1 133 0 132
-320 0 -320 0 0 -995 0 -995 329 0 330 0 4 598 c3 518 6 605 20 660 44 165
122 232 278 240 73 4 92 1 127 -17 46 -23 80 -65 108 -131 18 -42 19 -85 24
-695 l5 -650 327 -3 326 -2 5 612 c4 652 5 669 54 763 27 51 57 79 113 104 52
24 159 28 221 10 85 -26 150 -114 168 -229 7 -40 11 -293 11 -662 l0 -598 325
0 325 0 0 673 c0 814 -4 864 -92 1047 -67 140 -196 250 -346 294 -92 27 -242
38 -349 26 -185 -20 -299 -76 -439 -216 l-92 -90 -20 41 c-35 72 -117 151
-195 190 -130 63 -318 94 -452 74z"/>
<path d="M7472 6203 l3 -2418 310 0 310 0 3 106 3 107 82 -82 c136 -135 264
-186 469 -186 245 0 415 68 578 230 105 105 174 218 223 367 55 168 68 241 74
434 6 202 -8 319 -58 472 -90 276 -285 484 -522 556 -288 88 -594 18 -767
-177 l-50 -56 0 1532 0 1532 -330 0 -330 0 2 -2417z m1187 -918 c142 -78 213
-240 215 -485 1 -267 -88 -466 -243 -542 -66 -32 -223 -32 -295 0 -78 35 -110
65 -149 139 -55 106 -68 167 -74 353 -6 188 5 258 57 360 77 152 177 212 345
207 78 -2 97 -7 144 -32z"/>
<path d="M2212 5148 l3 -1363 325 0 325 0 3 1363 2 1362 -330 0 -330 0 2
-1362z"/>
<path d="M935 5818 c-327 -13 -519 -81 -675 -237 -110 -110 -164 -228 -172
-371 l-3 -55 302 -3 301 -2 17 55 c38 119 134 185 282 193 140 8 285 -53 319
-133 31 -75 9 -170 -48 -205 -54 -33 -121 -49 -348 -81 -449 -64 -620 -119
-749 -242 -61 -59 -115 -144 -137 -219 -25 -87 -26 -288 0 -373 64 -212 220
-347 461 -396 83 -17 123 -20 235 -16 230 9 428 76 552 186 l56 51 7 -53 c4
-28 11 -68 16 -88 l9 -36 172 -6 c266 -10 488 -9 488 3 0 6 -7 24 -15 40 -45
88 -48 122 -55 810 -7 719 -6 704 -71 837 -36 75 -131 174 -212 222 -82 48
-206 88 -332 105 -149 20 -201 22 -400 14z m375 -1225 c-1 -288 -88 -418 -305
-453 -151 -25 -284 21 -333 115 -21 41 -21 160 1 201 46 89 166 141 451 195
61 11 124 27 140 34 17 7 34 14 39 14 4 1 7 -47 7 -106z"/>
<path d="M3930 5819 c-168 -20 -353 -90 -484 -183 -91 -65 -224 -210 -275
-301 -182 -320 -197 -714 -40 -1044 103 -218 292 -393 522 -486 231 -93 549
-101 779 -19 455 163 716 579 677 1081 -12 164 -48 288 -123 429 -199 373
-606 575 -1056 523z m295 -531 c113 -58 194 -192 220 -363 8 -55 15 -122 15
-150 0 -27 -7 -95 -15 -150 -27 -175 -106 -305 -224 -362 -50 -25 -67 -28
-156 -28 -89 0 -106 3 -153 28 -147 77 -232 264 -232 512 0 269 100 469 265
528 76 27 213 19 280 -15z"/>
<path d="M6005 5820 c-351 -49 -610 -280 -709 -631 -80 -281 -54 -629 64 -874
114 -237 325 -393 590 -435 94 -14 245 -12 318 5 126 30 261 115 335 211 l42
54 3 -133 c6 -287 -41 -415 -175 -473 -49 -21 -210 -30 -288 -15 -97 18 -144
48 -176 111 -16 30 -31 63 -33 73 -5 16 -29 17 -331 17 -370 0 -337 10 -310
-95 60 -238 212 -397 456 -479 136 -45 252 -60 494 -60 172 0 239 3 308 17
302 61 523 229 620 470 63 156 61 117 64 1200 l4 987 -313 -2 -313 -3 -5 -115
-5 -115 -23 36 c-35 57 -153 163 -213 192 -109 53 -272 76 -404 57z m427 -527
c144 -65 228 -237 228 -466 -1 -204 -76 -349 -217 -419 -61 -30 -75 -33 -162
-33 -83 0 -104 4 -152 27 -105 49 -173 140 -205 275 -23 96 -15 305 15 387 45
126 113 202 214 238 71 25 212 21 279 -9z"/>
<path d="M10405 5806 c-164 -28 -301 -76 -399 -141 -81 -54 -169 -153 -210
-237 -33 -68 -66 -194 -66 -253 l0 -25 305 0 c236 0 306 3 309 13 32 112 78
172 159 208 43 20 69 23 157 24 134 0 194 -19 261 -84 l49 -47 0 -68 c0 -146
-40 -166 -435 -221 -328 -45 -526 -98 -642 -174 -73 -47 -154 -135 -187 -204
-76 -153 -73 -386 6 -547 47 -96 154 -200 254 -246 290 -134 745 -78 959 118
l53 48 7 -42 c3 -24 11 -64 16 -90 l11 -48 329 0 329 0 -15 38 c-47 110 -48
124 -55 812 -6 571 -9 663 -23 715 -67 234 -232 373 -522 437 -118 26 -526 35
-650 14z m562 -1214 c-18 -328 -122 -454 -377 -455 -127 -1 -204 28 -254 96
-25 34 -35 156 -16 211 15 47 77 99 154 129 55 22 114 37 366 92 41 9 86 22
100 30 14 8 27 14 29 15 2 0 1 -53 -2 -118z"/>
</g>
</svg>
